<svg viewBox="0 0 280 220" fill="none" xmlns="http://www.w3.org/2000/svg">
  <circle cx="228" cy="42" r="14" stroke="#0F172A" stroke-width="1.6" fill="#FFFFFF"/>
  <path d="M222 44a6 6 0 1 0 12 0" stroke="#0F172A" stroke-width="1.5" stroke-linecap="round" fill="none"/>
  <circle cx="225" cy="40" r="1.4" fill="#0F172A"/><circle cx="233" cy="40" r="1.4" fill="#0F172A"/>
  <path d="M54 118 70 124v14c0 9-16 16-16 16s-16-7-16-16v-14l16-6Z" fill="#2563EB" stroke="#0F172A" stroke-width="1.6"/>
  <path d="M54 130v10M49 135h10" stroke="#FFFFFF" stroke-width="2" stroke-linecap="round"/>
  <path d="M34 108c36-48 76-58 106-58s70 10 106 58" fill="#2563EB" fill-opacity="0.22" stroke="#0F172A" stroke-width="2"/>
  <path d="M34 108c18-28 42-40 70-46" stroke="#FFFFFF" stroke-width="14" stroke-linecap="round" opacity="0.55"/>
  <path d="M88 62c28-6 52 2 70 46" stroke="#2563EB" stroke-width="12" stroke-linecap="round" opacity="0.35"/>
  <path d="M140 56c24 4 48 20 66 52" stroke="#FFFFFF" stroke-width="12" stroke-linecap="round" opacity="0.5"/>
  <line x1="140" y1="108" x2="140" y2="174" stroke="#0F172A" stroke-width="2" stroke-linecap="round"/>
  <path d="M96 86c0-9 7-15 14-15s14 6 14 15" stroke="#0F172A" stroke-width="2" fill="none"/>
  <path d="M88 92c-6 10-4 20 4 26" stroke="#0F172A" stroke-width="1.6"/>
  <circle cx="110" cy="90" r="11" stroke="#0F172A" stroke-width="2" fill="#FFFFFF"/>
  <circle cx="106.9" cy="89.1" r="1.5" fill="#0F172A"/><circle cx="113.1" cy="89.1" r="1.5" fill="#0F172A"/>
  <path d="M106.7 93.6Q110 95.6 113.3 93.6" stroke="#0F172A" stroke-width="1.3" stroke-linecap="round" fill="none"/>
  <path d="M96 104c3 26 8 40 14 46s12-20 14-46" stroke="#0F172A" stroke-width="2" fill="#2563EB"/>
  <path d="M102 150h20v26h-20v-26Z" fill="#FFFFFF" stroke="#0F172A" stroke-width="1.4"/>
  <path d="M154 78c0-10 8-16 16-16s16 6 16 16" stroke="#0F172A" stroke-width="2" fill="#2563EB"/>
  <circle cx="170" cy="82" r="12" stroke="#0F172A" stroke-width="2" fill="#FFFFFF"/>
  <circle cx="166.6" cy="81.1" r="1.5" fill="#0F172A"/><circle cx="173.4" cy="81.1" r="1.5" fill="#0F172A"/>
  <path d="M166.4 85.9Q170 87.9 173.6 85.9" stroke="#0F172A" stroke-width="1.3" stroke-linecap="round" fill="none"/>
  <path d="M154 96c4 28 10 44 16 50s14-22 16-50" stroke="#0F172A" stroke-width="2" fill="#FFFFFF"/>
  <path d="M148 100c-12 4-16 16-12 28" stroke="#0F172A" stroke-width="2" stroke-linecap="round"/>
  <path d="M188 102c14 2 18 14 14 26" stroke="#0F172A" stroke-width="2" stroke-linecap="round"/>
  <path d="M160 146h22v30h-22v-30Z" fill="#2563EB" stroke="#0F172A" stroke-width="1.6"/>
  <path d="M140 108c-4 8-2 16 4 20" stroke="#0F172A" stroke-width="1.8" stroke-linecap="round"/>
  <circle cx="140" cy="118" r="9" stroke="#0F172A" stroke-width="2" fill="#FFFFFF"/>
  <circle cx="137.5" cy="117.3" r="1.5" fill="#0F172A"/><circle cx="142.5" cy="117.3" r="1.5" fill="#0F172A"/>
  <path d="M137.3 121.2Q140 123.1 142.7 121.2" stroke="#0F172A" stroke-width="1.3" stroke-linecap="round" fill="none"/>
  <path d="M132 106c0-5 4-8 8-8s8 3 8 8" stroke="#0F172A" stroke-width="1.3" fill="none"/>
  <path d="M130 128c2 18 6 28 10 32s8-14 10-32" stroke="#0F172A" stroke-width="1.5" fill="#EFF6FF"/>
  <line x1="134" y1="160" x2="132" y2="176" stroke="#0F172A" stroke-width="1.6" stroke-linecap="round"/>
  <line x1="148" y1="160" x2="150" y2="176" stroke="#0F172A" stroke-width="1.6" stroke-linecap="round"/>
</svg>
